# xmcd
#
# Track frame offsets:
# 150
# 13452
# 27867
# 48010
#
# Disc length: 857 seconds
#
#
# Revision: 0
# Processed by: cddbd v1.5.2PL0 Copyright (c) Steve Scherf et al.
# Submitted via: FreeRIP 2.941 
#
DISCID=28035704
DTITLE=The Drive - Never Enough
DYEAR=1992
DGENRE=Country
TTITLE0=Weak End
TTITLE1=Never Enough
TTITLE2=Don't Stop Believin'
TTITLE3=Do You Love Me?
EXTD=
EXTT0=
EXTT1=
EXTT2=
EXTT3=
PLAYORDER=
